<svg width="16" height="16" viewBox="0 0 16 16" fill="none" xmlns="http://www.w3.org/2000/svg">
<path d="M15 11.2V3.733L8.61 0V2.867L11.113 4.333C11.212 4.4 11.212 4.533 11.113 4.567L8.148 6.3C8.049 6.367 7.951 6.333 7.885 6.3L4.92 4.567C4.821 4.533 4.821 4.367 4.92 4.333L7.424 2.867V0L1 3.733V11.2L3.438 9.767V6.833C3.438 6.733 3.569 6.667 3.635 6.7L6.6 8.433C6.699 8.5 6.732 8.567 6.732 8.667V12.133C6.732 12.233 6.6 12.3 6.534 12.267L4.031 10.8L1.593 12.233L7.983 16L14.374 12.267L11.936 10.833L9.434 12.3C9.335 12.367 9.236 12.3 9.236 12.167V8.7C9.236 8.6 9.302 8.5 9.368 8.467L12.333 6.733C12.432 6.667 12.53 6.733 12.53 6.867V9.8L15 11.2Z" fill="white"/>
</svg>
