<svg width="24" height="24" viewBox="0 0 24 24" fill="none" xmlns="http://www.w3.org/2000/svg">
<path d="M8 12C8 6.477 9.79 2 12 2C14.21 2 16 6.477 16 12C16 17.523 14.21 22 12 22C9.79 22 8 17.523 8 12Z" stroke="white" stroke-width="1.5" stroke-linecap="round" stroke-linejoin="round"/>
<path d="M9.97496 8.62003C14.817 5.85803 19.649 5.17003 20.767 7.08303C21.885 8.99603 18.867 12.786 14.025 15.547C9.18296 18.308 4.35096 18.997 3.23296 17.083C2.11496 15.17 5.13296 11.382 9.97496 8.62003Z" stroke="white" stroke-width="1.5" stroke-linecap="round" stroke-linejoin="round"/>
<path d="M14.025 8.62003C18.867 11.38 21.885 15.17 20.767 17.083C19.649 18.997 14.817 18.309 9.97496 15.547C5.13296 12.785 2.11496 8.99703 3.23296 7.08303C4.34996 5.17003 9.18296 5.85803 14.025 8.62003Z" stroke="white" stroke-width="1.5" stroke-linecap="round" stroke-linejoin="round"/>
<path d="M13.5 12C13.5 12.3978 13.342 12.7794 13.0607 13.0607C12.7794 13.342 12.3978 13.5 12 13.5C11.6022 13.5 11.2206 13.342 10.9393 13.0607C10.658 12.7794 10.5 12.3978 10.5 12C10.5 11.6022 10.658 11.2206 10.9393 10.9393C11.2206 10.658 11.6022 10.5 12 10.5C12.3978 10.5 12.7794 10.658 13.0607 10.9393C13.342 11.2206 13.5 11.6022 13.5 12Z" stroke="white" stroke-width="1.5" stroke-linecap="round" stroke-linejoin="round"/>
</svg>
