<svg width="16" height="16" viewBox="0 0 16 16" fill="none" xmlns="http://www.w3.org/2000/svg">
<path d="M8.8125 1.5C9.5135 3.1545 6.299 4.168 6 5.547C5.7265 6.8125 7.9045 8.297 7.9065 8.297C7.574 7.7735 7.332 7.332 7 6.5155C6.4375 5.1365 10.4275 3.8925 8.8125 1.5ZM10.9375 3.797C10.9375 3.797 8.127 3.9745 7.9845 5.8125C7.9195 6.631 8.7265 7.0605 8.75 7.6565C8.77 8.1425 8.2655 8.5465 8.2655 8.5465C8.2655 8.5465 9.17 8.383 9.453 7.6405C9.7655 6.8165 8.844 6.254 8.9375 5.5935C9.0275 4.963 10.9375 3.797 10.9375 3.797ZM11.625 8.031C11.33 8.0175 10.998 8.127 10.703 8.3435C11.285 8.215 11.7815 8.58 11.7815 9C11.7815 9.9415 10.4375 10.828 10.4375 10.828C10.4375 10.828 12.5155 10.5955 12.5155 9.047C12.5155 8.408 12.1155 8.0545 11.625 8.031ZM6.1095 8.047C5.3845 8.072 3.9375 8.1915 3.9375 8.75C3.9375 9.5275 7.3085 9.588 9.719 9.1095C9.719 9.1095 10.375 8.6525 10.547 8.4845C8.967 8.8125 5.3595 8.8635 5.3595 8.578C5.3595 8.3165 6.5155 8.047 6.5155 8.047C6.5155 8.047 6.3515 8.039 6.1095 8.047ZM5.8905 9.4845C5.494 9.4845 4.906 9.793 4.906 10.0935C4.906 10.699 7.891 11.164 10.094 10.281L9.328 9.8125C7.834 10.301 5.074 10.1385 5.8905 9.4845ZM6.2655 10.8435C5.7245 10.8435 5.375 11.1855 5.375 11.4375C5.375 12.2125 8.6075 12.289 9.8905 11.5L9.078 10.9685C8.121 11.381 5.713 11.4415 6.2655 10.8435ZM4.453 11.547C3.5705 11.5295 3 11.9295 3 12.265C3 14.052 12.047 13.9665 12.047 12.14C12.047 11.8375 11.6895 11.693 11.5625 11.6245C12.301 13.3705 4.172 13.234 4.172 12.2025C4.172 11.9685 4.7735 11.734 5.328 11.8435L4.8595 11.5775C4.72486 11.558 4.58905 11.5481 4.453 11.547ZM13 12.75C11.625 14.08 8.145 14.5565 4.6405 13.7345C8.1445 15.1995 12.9825 14.3845 13 12.75Z" fill="white"/>
</svg>
