<svg width="24" height="24" viewBox="0 0 24 24" fill="none" xmlns="http://www.w3.org/2000/svg">
<path d="M12.988 11.321H10.953V9.44801H12.988V11.321ZM12.988 4.95801H10.953V6.86401H12.988V4.95801ZM15.443 9.51201H13.408V11.354H15.443V9.51201ZM10.566 7.22001H8.53003V9.09301H10.564L10.566 7.22001ZM12.988 7.22001H10.953V9.09301H12.988V7.22001ZM21.677 10.353C21.225 10.03 20.191 9.93301 19.416 10.095C19.319 9.32001 18.866 8.67401 18.156 8.09201L17.704 7.83401L17.446 8.28601C16.896 9.15801 16.703 10.612 17.316 11.548C16.8544 11.7777 16.3466 11.8995 15.831 11.904H2.07003C1.81103 13.486 2.26303 15.586 3.42603 17.007C4.55603 18.364 6.33303 19.042 8.59403 19.042C13.504 19.042 17.186 16.782 18.866 12.647C19.512 12.647 20.998 12.647 21.741 11.225C21.773 11.193 21.967 10.805 21.999 10.676L21.677 10.353ZM5.68803 9.51301H3.62103V11.355H5.65603V9.51201L5.68803 9.51301ZM8.11103 9.51301H6.07603V11.355H8.11003L8.11103 9.51301ZM10.565 9.51301H8.53203V11.355H10.566L10.565 9.51301ZM8.11103 7.22001H6.07603V9.09301H8.11003L8.11103 7.22001Z" fill="white"/>
</svg>
