<svg width="58" height="125" viewBox="0 0 58 125" fill="none" xmlns="http://www.w3.org/2000/svg">
<path d="M15.104 45.552C16.64 45.3813 18.3893 45.424 20.352 45.68C24.3627 46.6187 27.2213 48.5813 28.928 51.568L29.312 52.208L30.08 51.312C31.872 49.52 33.7493 48.1547 35.712 47.216C37.9307 46.1067 40.4053 45.552 43.136 45.552C44.672 45.552 45.7387 45.6373 46.336 45.808C47.872 46.2347 49.3653 46.96 50.816 47.984C53.7173 50.3733 54.9973 53.616 54.656 57.712C54.656 57.968 54.656 58.1813 54.656 58.352C54.144 62.5333 52.352 65.3493 49.28 66.8C46.8907 67.9093 44.6293 67.9947 42.496 67.056C40.0213 65.8613 39.0827 63.6853 39.68 60.528C40.0213 58.8213 40.832 57.2427 42.112 55.792C43.2213 54.768 44.4587 54.0427 45.824 53.616L46.72 53.232L46.336 52.848C44.3733 51.2267 41.8987 50.9707 38.912 52.08C35.9253 53.2747 33.1947 56.048 30.72 60.4L29.696 61.936L25.216 80.24C22.0587 92.528 20.352 98.928 20.096 99.44C18.9013 102 16.896 103.323 14.08 103.408C12.7147 103.408 11.52 103.024 10.496 102.256C10.0693 102.085 9.68533 101.616 9.344 100.848C8.91733 99.9947 8.87467 98.7147 9.216 97.008C9.64267 95.0453 11.136 88.9013 13.696 78.576C17.024 65.3493 18.7307 58.48 18.816 57.968C19.4133 53.7867 18.6027 51.6107 16.384 51.44C16.128 51.44 15.872 51.44 15.616 51.44C13.056 51.952 10.7947 56.1333 8.832 63.984C8.49067 65.008 8.32 65.5627 8.32 65.648C7.38133 66.16 6.35733 66.416 5.248 66.416H2.816L2.432 66.032C2.09067 65.6907 2.09067 64.7947 2.432 63.344C4.05333 57.3707 6.05867 52.8907 8.448 49.904C10.3253 47.6 12.544 46.1493 15.104 45.552Z" fill="white"/>
<path fill-rule="evenodd" clip-rule="evenodd" d="M31.1061 66.5477C31.8243 66.3843 32.3357 66.3592 32.6403 66.4723C32.8575 66.5471 33.0587 66.7295 33.2439 67.0194L33.3758 69.7041C33.5521 77.6411 34.1121 85.5591 35.0555 93.4583C35.6896 99.4077 36.491 103.982 37.4598 107.181C37.8657 108.485 38.1803 109.239 38.4039 109.441C38.5806 109.561 38.7563 109.659 38.931 109.736C39.1035 109.77 39.501 109.601 40.1235 109.229C41.5368 108.433 42.6697 108.014 43.522 107.972C44.1612 107.941 44.5552 108.135 44.704 108.555C44.8018 108.807 44.8164 109.105 44.748 109.45C44.5279 110.187 43.8827 110.966 42.8124 111.788C41.6163 112.658 40.0783 113.524 38.1983 114.385C37.3606 114.726 36.4528 114.941 35.4747 115.032C34.5372 115.078 33.7841 114.965 33.2154 114.694C32.5189 114.429 31.9622 113.966 31.5451 113.303C30.8452 112.098 30.0911 109.358 29.2831 105.084C29.2237 104.745 29.1654 104.427 29.1081 104.131L28.9939 103.111L20.7479 103.517L16.1134 97.8493C22.0296 88.716 19.5779 84.0519 23.8029 74.4036L24.9525 71.7199L26.4867 71.6446L26.4521 70.9414C26.4654 70.3427 26.6118 69.8442 26.8913 69.4461C27.6424 68.213 28.8363 67.3 30.4732 66.707L31.1061 66.5477ZM26.9002 81.364L27.3515 87.9418C27.7439 92.4506 28.0491 95.6181 28.2669 97.4443L28.3654 98.1443L22.5484 98.4301C18.4147 98.6332 16.0964 98.8325 15.5934 99.0281L15.344 99.1685L16.1122 97.8493C20.0065 91.0366 23.3766 84.4206 26.2223 78.0012L26.6866 77.0172L26.9002 81.364Z" fill="white"/>
<path d="M41.148 99.52C41.268 99.496 41.496 99.484 41.832 99.484C42.576 99.508 43.236 99.76 43.812 100.24C44.124 100.48 44.376 100.78 44.568 101.14C45.192 102.22 45.192 103.3 44.568 104.38C44.376 104.716 44.124 105.004 43.812 105.244C43.524 105.508 43.116 105.724 42.588 105.892C42.396 105.94 42.12 105.964 41.76 105.964C41.376 105.964 41.088 105.94 40.896 105.892C40.224 105.7 39.672 105.352 39.24 104.848C38.376 103.768 38.22 102.616 38.772 101.392C38.892 101.128 39.048 100.876 39.24 100.636C39.48 100.372 39.792 100.12 40.176 99.88C40.488 99.736 40.812 99.616 41.148 99.52Z" fill="white"/>
</svg>
