<svg width="24" height="24" viewBox="0 0 24 24" fill="none" xmlns="http://www.w3.org/2000/svg">
<path d="M6 3C5.20435 3 4.44129 3.31607 3.87868 3.87868C3.31607 4.44129 3 5.20435 3 6V18C3 18.7956 3.31607 19.5587 3.87868 20.1213C4.44129 20.6839 5.20435 21 6 21H18C18.7956 21 19.5587 20.6839 20.1213 20.1213C20.6839 19.5587 21 18.7956 21 18V6C21 5.20435 20.6839 4.44129 20.1213 3.87868C19.5587 3.31607 18.7956 3 18 3H6ZM13.334 16.055C14.054 16.635 14.7727 16.921 15.49 16.913C15.93 16.913 16.2673 16.8323 16.502 16.671C16.6113 16.6001 16.7002 16.5019 16.76 16.3862C16.8197 16.2705 16.8484 16.1412 16.843 16.011C16.8445 15.869 16.8149 15.7285 16.7561 15.5992C16.6974 15.47 16.611 15.3552 16.503 15.263C16.2683 15.0583 15.8243 14.853 15.171 14.647C14.3863 14.4203 13.7813 14.127 13.356 13.767C12.9387 13.407 12.726 12.9047 12.718 12.26C12.718 11.6513 12.982 11.1417 13.51 10.731C14.0233 10.3203 14.68 10.115 15.48 10.115C16.5947 10.115 17.489 10.3863 18.163 10.929L17.393 12.128C17.1157 11.9124 16.7977 11.7553 16.458 11.666C16.1528 11.5637 15.8338 11.5081 15.512 11.501C15.132 11.501 14.8277 11.5707 14.599 11.71C14.3723 11.85 14.259 12.0333 14.259 12.26C14.259 12.5093 14.398 12.722 14.676 12.898C14.956 13.0673 15.4327 13.2543 16.106 13.459C16.92 13.701 17.4993 14.0237 17.844 14.427C18.1887 14.8303 18.361 15.3437 18.361 15.967C18.361 16.605 18.1153 17.155 17.624 17.617C17.14 18.0717 16.436 18.31 15.512 18.332C14.302 18.332 13.29 17.969 12.476 17.243L13.334 16.055ZM7.804 16.693C8.03867 16.8397 8.321 16.913 8.651 16.913C8.99567 16.913 9.28167 16.814 9.509 16.616C9.73567 16.4107 9.84933 16.055 9.85 15.549V10.247H11.335V15.835C11.313 16.7003 11.0637 17.3237 10.587 17.705C10.3262 17.9255 10.0229 18.0902 9.696 18.189C9.39282 18.2813 9.07792 18.3295 8.761 18.332C8.211 18.332 7.72333 18.2367 7.298 18.046C6.84333 17.8413 6.462 17.4783 6.154 16.957L7.188 16.11C7.378 16.3667 7.58333 16.561 7.804 16.693Z" fill="white"/>
</svg>
