<svg width="24" height="24" viewBox="0 0 24 24" fill="none" xmlns="http://www.w3.org/2000/svg">
<g clip-path="url(#clip0_125_76)">
<path d="M23.693 10.7061L18.963 2.52105C18.553 1.81105 17.546 1.22705 16.723 1.22705H7.27304C6.45304 1.22705 5.44204 1.81105 5.03304 2.52105L0.306035 10.7061C-0.103965 11.4161 -0.103965 12.5791 0.306035 13.2901L5.03104 21.4791C5.44104 22.1891 6.44804 22.7731 7.27104 22.7731H16.726C17.546 22.7731 18.552 22.1891 18.966 21.4791L23.692 13.2891C24.102 12.5791 24.102 11.4161 23.692 10.7061H23.693ZM10.976 5.75505C10.976 5.21805 11.414 4.78005 11.95 4.78005C12.486 4.78005 12.925 5.21805 12.925 5.75505V11.5761C12.9092 11.8236 12.7996 12.0558 12.6187 12.2255C12.4378 12.3952 12.1991 12.4896 11.951 12.4896C11.703 12.4896 11.4643 12.3952 11.2833 12.2255C11.1024 12.0558 10.9929 11.8236 10.977 11.5761L10.976 5.75505ZM11.95 18.1851C10.1981 18.1827 8.5187 17.4855 7.28011 16.2466C6.04151 15.0076 5.34489 13.328 5.34304 11.5761C5.34556 10.5456 5.58785 9.52997 6.05074 8.60939C6.51364 7.6888 7.18443 6.88859 8.01004 6.27205C8.10148 6.20393 8.20548 6.15453 8.31606 6.1267C8.42664 6.09887 8.54163 6.09315 8.65442 6.10988C8.76722 6.1266 8.87561 6.16544 8.97335 6.22416C9.0711 6.28288 9.15629 6.36032 9.22404 6.45205C9.29211 6.54334 9.34151 6.64716 9.36941 6.75757C9.39731 6.86797 9.40316 6.9828 9.38663 7.09547C9.37009 7.20814 9.3315 7.31644 9.27306 7.41418C9.21461 7.51192 9.13747 7.59717 9.04603 7.66505C8.04425 8.4488 7.38837 9.59299 7.21833 10.8535C7.04828 12.114 7.37752 13.3911 8.13581 14.4123C8.89411 15.4335 10.0214 16.118 11.2773 16.3197C12.5331 16.5214 13.8181 16.2244 14.858 15.4921C15.4685 15.0379 15.9643 14.4472 16.3058 13.7673C16.6474 13.0873 16.8252 12.3369 16.825 11.5761C16.8228 10.8123 16.642 10.0597 16.2972 9.37817C15.9524 8.69669 15.4531 8.10525 14.839 7.65105C14.6542 7.51402 14.5312 7.30935 14.4969 7.08184C14.4626 6.85432 14.5198 6.62248 14.656 6.43705C14.7931 6.25221 14.9977 6.12918 15.2253 6.09489C15.4528 6.06059 15.6846 6.11782 15.87 6.25405C16.7023 6.86976 17.3789 7.67182 17.8455 8.59599C18.3121 9.52016 18.5558 10.5408 18.557 11.5761C18.5557 13.3282 17.8591 15.0082 16.6201 16.2471C15.3812 17.4861 13.7012 18.1827 11.949 18.1841" fill="white"/>
</g>
<defs>
<clipPath id="clip0_125_76">
<rect width="24" height="24" fill="white"/>
</clipPath>
</defs>
</svg>
