<svg width="24" height="24" viewBox="0 0 24 24" fill="none" xmlns="http://www.w3.org/2000/svg">
<path opacity="0.6" d="M11.667 2H8.33301C7.44891 2 6.60102 2.35121 5.97587 2.97636C5.35072 3.60151 4.99951 4.4494 4.99951 5.3335C4.99951 6.2176 5.35072 7.06549 5.97587 7.69064C6.60102 8.31579 7.44891 8.667 8.33301 8.667H11.667V2Z" fill="white"/>
<path opacity="0.4" d="M11.667 8.66699H8.333C7.44903 8.66699 6.60127 9.01815 5.97621 9.64321C5.35115 10.2683 5 11.116 5 12C5 12.884 5.35115 13.7317 5.97621 14.3568C6.60127 14.9818 7.44903 15.333 8.333 15.333H11.667V8.66699Z" fill="white"/>
<path d="M18.333 12C18.333 12.8841 17.9818 13.732 17.3567 14.3571C16.7315 14.9823 15.8836 15.3335 14.9995 15.3335C14.1154 15.3335 13.2675 14.9823 12.6424 14.3571C12.0172 13.732 11.666 12.8841 11.666 12C11.666 11.1159 12.0172 10.268 12.6424 9.64286C13.2675 9.01771 14.1154 8.6665 14.9995 8.6665C15.8836 8.6665 16.7315 9.01771 17.3567 9.64286C17.9818 10.268 18.333 11.1159 18.333 12Z" fill="white"/>
<path opacity="0.2" d="M8.33298 15.334H11.667V18.667C11.6668 19.3261 11.4712 19.9704 11.1048 20.5183C10.7385 21.0663 10.218 21.4933 9.609 21.7455C9.00001 21.9976 8.32994 22.0636 7.6835 21.9349C7.03705 21.8063 6.44326 21.4889 5.97719 21.0228C5.51112 20.5567 5.19371 19.9629 5.06507 19.3165C4.93643 18.67 5.00235 18 5.2545 17.391C5.50664 16.782 5.93368 16.2614 6.48164 15.8951C7.02959 15.5288 7.67386 15.3342 8.33298 15.334Z" fill="white"/>
<path opacity="0.8" d="M11.666 2H14.999C15.8831 2 16.731 2.35121 17.3562 2.97636C17.9813 3.60151 18.3325 4.4494 18.3325 5.3335C18.3325 6.2176 17.9813 7.06549 17.3562 7.69064C16.731 8.31579 15.8831 8.667 14.999 8.667H11.666V2Z" fill="white"/>
</svg>
